<?xml version="1.0"?>
<svg xmlns="http://www.w3.org/2000/svg" xmlns:xlink="http://www.w3.org/1999/xlink" xmlns:svgjs="http://svgjs.com/svgjs" version="1.1" width="512" height="512" x="0" y="0" viewBox="0 0 509.887 509.887" style="enable-background:new 0 0 512 512" xml:space="preserve" class=""><g><g xmlns="http://www.w3.org/2000/svg" id="XMLID_1_"><g><path id="XMLID_74_" d="m250.321 509.887c-24.371-67.201-12.099-144.811 36.835-201.518l-32.213-32.213-169.389 169.388c45.577 40.61 103.395 63.259 164.767 64.343z" fill="#3c3b3a" data-original="#000000" style="" class=""/><path id="XMLID_73_" d="m0 259.631c1.099 61.347 23.746 119.14 64.341 164.7l169.388-169.388-32.211-32.211c-55.347 47.738-132.37 62.072-201.518 36.899z" fill="#3c3b3a" data-original="#000000" style="" class=""/><path id="XMLID_72_" d="m5.709 229.719c59.358 23.507 126.276 12.27 174.524-28.273l-115.892-115.891c-35.631 39.988-57.435 89.401-62.978 142.371 1.439.615 2.887 1.215 4.346 1.793z" fill="#3c3b3a" data-original="#000000" style="" class=""/><path id="XMLID_71_" d="m259.639 0c25.21 69.192 10.936 146.089-36.906 201.52l32.21 32.209 169.388-169.388c-45.559-40.593-103.348-63.24-164.692-64.341z" fill="#3c3b3a" data-original="#000000" style="" class=""/><path id="XMLID_70_" d="m229.197 4.408c-.414-1.021-.846-2.033-1.279-3.044-52.967 5.544-102.376 27.348-142.364 62.977l115.894 115.894c40.927-48.668 51.97-116.1 27.749-175.827z" fill="#3c3b3a" data-original="#000000" style="" class=""/><path id="XMLID_69_" d="m282.009 508.518c52.952-5.552 102.345-27.353 142.322-62.973l-115.889-115.889c-42.618 50.695-51.43 120.335-26.433 178.862z" fill="#3c3b3a" data-original="#000000" style="" class=""/><path id="XMLID_68_" d="m329.655 308.442 115.889 115.889c35.62-39.977 57.422-89.37 62.974-142.321-58.527-24.998-128.167-16.186-178.863 26.432z" fill="#3c3b3a" data-original="#000000" style="" class=""/><path id="XMLID_67_" d="m308.369 287.156c56.706-48.934 134.317-61.206 201.518-36.835-1.084-61.372-23.732-119.19-64.343-164.767l-169.388 169.389z" fill="#3c3b3a" data-original="#000000" style="" class=""/></g></g></g></svg>
